<?xml version="1.0" encoding="UTF-8"?><svg version="1.1" viewBox="0 0 48.0 48.0" xmlns="http://www.w3.org/2000/svg" xmlns:xlink="http://www.w3.org/1999/xlink"><defs><clipPath id="i0"><path d="M18.7617188,0 C19.9492188,0 20.8398438,0.296875 21.4335938,0.890625 C22.0273438,1.484375 22.3242188,2.36328125 22.3242188,3.52734375 L22.3242188,17.0390625 C22.3242188,18.203125 22.0273438,19.0800781 21.4335938,19.6699219 C20.8398438,20.2597656 19.9492188,20.5546875 18.7617188,20.5546875 L3.5625,20.5546875 C2.390625,20.5546875 1.50390625,20.2617188 0.90234375,19.6757812 C0.30078125,19.0898438 0,18.2109375 0,17.0390625 L0,3.52734375 C0,2.35546875 0.30078125,1.47460938 0.90234375,0.884765625 C1.50390625,0.294921875 2.390625,0 3.5625,0 Z M18.84375,5.23828125 L3.46875,5.23828125 C2.9921875,5.23828125 2.62890625,5.36328125 2.37890625,5.61328125 C2.12890625,5.86328125 2.00390625,6.23828125 2.00390625,6.73828125 L2.00390625,17.0625 C2.00390625,17.5703125 2.12890625,17.9492188 2.37890625,18.1992188 C2.62890625,18.4492188 2.9921875,18.5742188 3.46875,18.5742188 L18.84375,18.5742188 C19.3203125,18.5742188 19.6894531,18.4492188 19.9511719,18.1992188 C20.2128906,17.9492188 20.34375,17.5703125 20.34375,17.0625 L20.34375,6.73828125 C20.34375,6.23828125 20.2128906,5.86328125 19.9511719,5.61328125 C19.6894531,5.36328125 19.3203125,5.23828125 18.84375,5.23828125 Z M6.01171875,14.671875 C6.21484375,14.671875 6.35351562,14.7070312 6.42773438,14.7773438 C6.50195312,14.8476562 6.5390625,14.984375 6.5390625,15.1875 L6.5390625,15.8320312 C6.5390625,16.0273438 6.50195312,16.1601562 6.42773438,16.2304688 C6.35351562,16.3007812 6.21484375,16.3359375 6.01171875,16.3359375 L5.3671875,16.3359375 C5.1640625,16.3359375 5.02539062,16.3007812 4.95117188,16.2304688 C4.87695312,16.1601562 4.83984375,16.0273438 4.83984375,15.8320312 L4.83984375,15.1875 C4.83984375,14.984375 4.87695312,14.8476562 4.95117188,14.7773438 C5.02539062,14.7070312 5.1640625,14.671875 5.3671875,14.671875 Z M9.66796875,14.671875 C9.86328125,14.671875 9.99804688,14.7070312 10.0722656,14.7773438 C10.1464844,14.8476562 10.1835938,14.984375 10.1835938,15.1875 L10.1835938,15.8320312 C10.1835938,16.0273438 10.1464844,16.1601562 10.0722656,16.2304688 C9.99804688,16.3007812 9.86328125,16.3359375 9.66796875,16.3359375 L9.0234375,16.3359375 C8.828125,16.3359375 8.68945312,16.3007812 8.60742188,16.2304688 C8.52539062,16.1601562 8.484375,16.0273438 8.484375,15.8320312 L8.484375,15.1875 C8.484375,14.984375 8.52539062,14.8476562 8.60742188,14.7773438 C8.68945312,14.7070312 8.828125,14.671875 9.0234375,14.671875 Z M13.3242188,14.671875 C13.5195312,14.671875 13.65625,14.7070312 13.734375,14.7773438 C13.8125,14.8476562 13.8515625,14.984375 13.8515625,15.1875 L13.8515625,15.8320312 C13.8515625,16.0273438 13.8125,16.1601562 13.734375,16.2304688 C13.65625,16.3007812 13.5195312,16.3359375 13.3242188,16.3359375 L12.6679688,16.3359375 C12.4726562,16.3359375 12.3378906,16.3007812 12.2636719,16.2304688 C12.1894531,16.1601562 12.1523438,16.0273438 12.1523438,15.8320312 L12.1523438,15.1875 C12.1523438,14.984375 12.1894531,14.8476562 12.2636719,14.7773438 C12.3378906,14.7070312 12.4726562,14.671875 12.6679688,14.671875 Z M6.01171875,11.0742188 C6.21484375,11.0742188 6.35351562,11.109375 6.42773438,11.1796875 C6.50195312,11.25 6.5390625,11.3828125 6.5390625,11.578125 L6.5390625,12.234375 C6.5390625,12.4296875 6.50195312,12.5644531 6.42773438,12.6386719 C6.35351562,12.7128906 6.21484375,12.75 6.01171875,12.75 L5.3671875,12.75 C5.1640625,12.75 5.02539062,12.7128906 4.95117188,12.6386719 C4.87695312,12.5644531 4.83984375,12.4296875 4.83984375,12.234375 L4.83984375,11.578125 C4.83984375,11.3828125 4.87695312,11.25 4.95117188,11.1796875 C5.02539062,11.109375 5.1640625,11.0742188 5.3671875,11.0742188 Z M9.66796875,11.0742188 C9.86328125,11.0742188 9.99804688,11.109375 10.0722656,11.1796875 C10.1464844,11.25 10.1835938,11.3828125 10.1835938,11.578125 L10.1835938,12.234375 C10.1835938,12.4296875 10.1464844,12.5644531 10.0722656,12.6386719 C9.99804688,12.7128906 9.86328125,12.75 9.66796875,12.75 L9.0234375,12.75 C8.828125,12.75 8.68945312,12.7128906 8.60742188,12.6386719 C8.52539062,12.5644531 8.484375,12.4296875 8.484375,12.234375 L8.484375,11.578125 C8.484375,11.3828125 8.52539062,11.25 8.60742188,11.1796875 C8.68945312,11.109375 8.828125,11.0742188 9.0234375,11.0742188 Z M13.3242188,11.0742188 C13.5195312,11.0742188 13.65625,11.109375 13.734375,11.1796875 C13.8125,11.25 13.8515625,11.3828125 13.8515625,11.578125 L13.8515625,12.234375 C13.8515625,12.4296875 13.8125,12.5644531 13.734375,12.6386719 C13.65625,12.7128906 13.5195312,12.75 13.3242188,12.75 L12.6679688,12.75 C12.4726562,12.75 12.3378906,12.7128906 12.2636719,12.6386719 C12.1894531,12.5644531 12.1523438,12.4296875 12.1523438,12.234375 L12.1523438,11.578125 C12.1523438,11.3828125 12.1894531,11.25 12.2636719,11.1796875 C12.3378906,11.109375 12.4726562,11.0742188 12.6679688,11.0742188 Z M16.9804688,11.0742188 C17.1757812,11.0742188 17.3105469,11.109375 17.3847656,11.1796875 C17.4589844,11.25 17.4960938,11.3828125 17.4960938,11.578125 L17.4960938,12.234375 C17.4960938,12.4296875 17.4589844,12.5644531 17.3847656,12.6386719 C17.3105469,12.7128906 17.1757812,12.75 16.9804688,12.75 L16.3242188,12.75 C16.1210938,12.75 15.9824219,12.7128906 15.9082031,12.6386719 C15.8339844,12.5644531 15.796875,12.4296875 15.796875,12.234375 L15.796875,11.578125 C15.796875,11.3828125 15.8339844,11.25 15.9082031,11.1796875 C15.9824219,11.109375 16.1210938,11.0742188 16.3242188,11.0742188 Z M9.66796875,7.4765625 C9.86328125,7.4765625 9.99804688,7.51367188 10.0722656,7.58789062 C10.1464844,7.66210938 10.1835938,7.796875 10.1835938,7.9921875 L10.1835938,8.63671875 C10.1835938,8.83203125 10.1464844,8.96484375 10.0722656,9.03515625 C9.99804688,9.10546875 9.86328125,9.140625 9.66796875,9.140625 L9.0234375,9.140625 C8.828125,9.140625 8.68945312,9.10546875 8.60742188,9.03515625 C8.52539062,8.96484375 8.484375,8.83203125 8.484375,8.63671875 L8.484375,7.9921875 C8.484375,7.796875 8.52539062,7.66210938 8.60742188,7.58789062 C8.68945312,7.51367188 8.828125,7.4765625 9.0234375,7.4765625 Z M13.3242188,7.4765625 C13.5195312,7.4765625 13.65625,7.51367188 13.734375,7.58789062 C13.8125,7.66210938 13.8515625,7.796875 13.8515625,7.9921875 L13.8515625,8.63671875 C13.8515625,8.83203125 13.8125,8.96484375 13.734375,9.03515625 C13.65625,9.10546875 13.5195312,9.140625 13.3242188,9.140625 L12.6679688,9.140625 C12.4726562,9.140625 12.3378906,9.10546875 12.2636719,9.03515625 C12.1894531,8.96484375 12.1523438,8.83203125 12.1523438,8.63671875 L12.1523438,7.9921875 C12.1523438,7.796875 12.1894531,7.66210938 12.2636719,7.58789062 C12.3378906,7.51367188 12.4726562,7.4765625 12.6679688,7.4765625 Z M16.9804688,7.4765625 C17.1757812,7.4765625 17.3105469,7.51367188 17.3847656,7.58789062 C17.4589844,7.66210938 17.4960938,7.796875 17.4960938,7.9921875 L17.4960938,8.63671875 C17.4960938,8.83203125 17.4589844,8.96484375 17.3847656,9.03515625 C17.3105469,9.10546875 17.1757812,9.140625 16.9804688,9.140625 L16.3242188,9.140625 C16.1210938,9.140625 15.9824219,9.10546875 15.9082031,9.03515625 C15.8339844,8.96484375 15.796875,8.83203125 15.796875,8.63671875 L15.796875,7.9921875 C15.796875,7.796875 15.8339844,7.66210938 15.9082031,7.58789062 C15.9824219,7.51367188 16.1210938,7.4765625 16.3242188,7.4765625 Z"></path></clipPath></defs><g transform="translate(12.931640625 13.13046874999964)"><g clip-path="url(#i0)"><polygon points="0,0 22.3242188,0 22.3242188,20.5546875 0,20.5546875 0,0" stroke="none" fill="#007CFB"></polygon></g></g></svg>